<?plantuml 1.2026.2beta3?><svg xmlns="http://www.w3.org/2000/svg" xmlns:xlink="http://www.w3.org/1999/xlink" contentStyleType="text/css" data-diagram-type="CLASS" height="830px" preserveAspectRatio="none" style="width:1311px;height:830px;background:#1B1B1B;" version="1.1" viewBox="0 0 1311 830" width="1311px" zoomAndPan="magnify"><title>ETmaintain - Facility Maintenance Management System</title><defs/><g><rect fill="#1B1B1B" height="830" style="stroke:none;stroke-width:1;" width="1311" x="0" y="0"/><g class="title" data-source-line="1"><text fill="#FFFFFF" font-family="sans-serif" font-size="14" font-weight="bold" lengthAdjust="spacing" textLength="439.4004" x="428.9771" y="22.9951">ETmaintain - Facility Maintenance Management System</text></g><!--class User--><g class="entity" data-qualified-name="User" data-source-line="6" id="ent0002"><rect fill="#313139" height="145.7813" rx="2.5" ry="2.5" style="stroke:#E7E7E7;stroke-width:0.5;" width="160.2373" x="186.54" y="472.1569"/><ellipse cx="246.4536" cy="488.1569" fill="#2A5D60" rx="11" ry="11" style="stroke:#E7E7E7;stroke-width:1;"/><path d="M246.5629,483.5006 L245.4067,488.5787 L247.7348,488.5787 L246.5629,483.5006 Z M245.0786,481.2662 L248.0629,481.2662 L251.4223,493.6569 L248.9692,493.6569 L248.2036,490.5944 L244.9223,490.5944 L244.1723,493.6569 L241.7348,493.6569 L245.0786,481.2662 Z " fill="#FFFFFF"/><text fill="#FFFFFF" font-family="sans-serif" font-size="14" font-style="italic" lengthAdjust="spacing" textLength="31.9102" x="266.9536" y="493.0036">User</text><line style="stroke:#E7E7E7;stroke-width:0.5;" x1="187.54" x2="345.7773" y1="504.1569" y2="504.1569"/><g data-visibility-modifier="PRIVATE_FIELD"><rect fill="none" height="6" style="stroke:#C82930;stroke-width:1;" width="6" x="194.54" y="514.8053"/></g><text fill="#FFFFFF" font-family="sans-serif" font-size="14" lengthAdjust="spacing" textLength="98.9502" x="206.54" y="521.152">userId : String</text><g data-visibility-modifier="PRIVATE_FIELD"><rect fill="none" height="6" style="stroke:#C82930;stroke-width:1;" width="6" x="194.54" y="531.1022"/></g><text fill="#FFFFFF" font-family="sans-serif" font-size="14" lengthAdjust="spacing" textLength="95.1016" x="206.54" y="537.4489">name : String</text><g data-visibility-modifier="PRIVATE_FIELD"><rect fill="none" height="6" style="stroke:#C82930;stroke-width:1;" width="6" x="194.54" y="547.3991"/></g><text fill="#FFFFFF" font-family="sans-serif" font-size="14" lengthAdjust="spacing" textLength="82.2227" x="206.54" y="553.7457">role : String</text><line style="stroke:#E7E7E7;stroke-width:0.5;" x1="187.54" x2="345.7773" y1="561.0475" y2="561.0475"/><g data-visibility-modifier="PUBLIC_METHOD"><ellipse cx="197.54" cy="574.6959" fill="#84BE84" rx="3" ry="3" style="stroke:#038048;stroke-width:1;"/></g><text fill="#FFFFFF" font-family="sans-serif" font-size="14" lengthAdjust="spacing" textLength="134.2373" x="206.54" y="578.0426">getUserId() : String</text><g data-visibility-modifier="PUBLIC_METHOD"><ellipse cx="197.54" cy="590.9928" fill="#84BE84" rx="3" ry="3" style="stroke:#038048;stroke-width:1;"/></g><text fill="#FFFFFF" font-family="sans-serif" font-size="14" lengthAdjust="spacing" textLength="130.6143" x="206.54" y="594.3395">getName() : String</text><g data-visibility-modifier="PUBLIC_METHOD"><ellipse cx="197.54" cy="607.2897" fill="#84BE84" rx="3" ry="3" style="stroke:#038048;stroke-width:1;"/></g><text fill="#FFFFFF" font-family="sans-serif" font-size="14" lengthAdjust="spacing" textLength="120.1074" x="206.54" y="610.6364">getRole() : String</text></g><!--class Technician--><g class="entity" data-qualified-name="Technician" data-source-line="19" id="ent0003"><rect fill="#313139" height="96.8906" rx="2.5" ry="2.5" style="stroke:#E7E7E7;stroke-width:0.5;" width="519.3223" x="7" y="718.6769"/><ellipse cx="224.6426" cy="734.6769" fill="#2E5233" rx="11" ry="11" style="stroke:#E7E7E7;stroke-width:1;"/><path d="M227.6113,740.3175 Q227.0332,740.6144 226.3926,740.755 Q225.752,740.9113 225.0488,740.9113 Q222.5488,740.9113 221.2207,739.2706 Q219.9082,737.6144 219.9082,734.4894 Q219.9082,731.3644 221.2207,729.7081 Q222.5488,728.0519 225.0488,728.0519 Q225.752,728.0519 226.3926,728.2081 Q227.0488,728.3644 227.6113,728.6613 L227.6113,731.38 Q226.9863,730.8019 226.3926,730.5363 Q225.7988,730.255 225.1738,730.255 Q223.8301,730.255 223.1426,731.3331 Q222.4551,732.3956 222.4551,734.4894 Q222.4551,736.5831 223.1426,737.6613 Q223.8301,738.7238 225.1738,738.7238 Q225.7988,738.7238 226.3926,738.4581 Q226.9863,738.1769 227.6113,737.5988 L227.6113,740.3175 Z " fill="#FFFFFF"/><text fill="#FFFFFF" font-family="sans-serif" font-size="14" lengthAdjust="spacing" textLength="75.5371" x="245.1426" y="739.5236">Technician</text><line style="stroke:#E7E7E7;stroke-width:0.5;" x1="8" x2="525.3223" y1="750.6769" y2="750.6769"/><g data-visibility-modifier="PRIVATE_FIELD"><rect fill="none" height="6" style="stroke:#C82930;stroke-width:1;" width="6" x="15" y="761.3253"/></g><text fill="#FFFFFF" font-family="sans-serif" font-size="14" lengthAdjust="spacing" textLength="150.8828" x="27" y="767.672">specialization : String</text><line style="stroke:#E7E7E7;stroke-width:0.5;" x1="8" x2="525.3223" y1="774.9738" y2="774.9738"/><g data-visibility-modifier="PUBLIC_METHOD"><ellipse cx="18" cy="788.6222" fill="#84BE84" rx="3" ry="3" style="stroke:#038048;stroke-width:1;"/></g><text fill="#FFFFFF" font-family="sans-serif" font-size="14" lengthAdjust="spacing" textLength="197.0459" x="27" y="791.9689">viewAssignedOrders() : void</text><g data-visibility-modifier="PUBLIC_METHOD"><ellipse cx="18" cy="804.9191" fill="#84BE84" rx="3" ry="3" style="stroke:#038048;stroke-width:1;"/></g><text fill="#FFFFFF" font-family="sans-serif" font-size="14" lengthAdjust="spacing" textLength="493.3223" x="27" y="808.2657">updateWorkOrderStatus(orderId : int, status : WorkOrderStatus) : void</text></g><!--class WorkOrder--><g class="entity" data-qualified-name="WorkOrder" data-source-line="31" id="ent0005"><rect fill="#313139" height="210.9688" rx="2.5" ry="2.5" style="stroke:#E7E7E7;stroke-width:0.5;" width="362.1504" x="459.59" y="439.5569"/><ellipse cx="598.2638" cy="455.5569" fill="#2E5233" rx="11" ry="11" style="stroke:#E7E7E7;stroke-width:1;"/><path d="M601.2326,461.1975 Q600.6545,461.4944 600.0138,461.635 Q599.3732,461.7912 598.6701,461.7912 Q596.1701,461.7912 594.842,460.1506 Q593.5295,458.4944 593.5295,455.3694 Q593.5295,452.2444 594.842,450.5881 Q596.1701,448.9319 598.6701,448.9319 Q599.3732,448.9319 600.0138,449.0881 Q600.6701,449.2444 601.2326,449.5412 L601.2326,452.26 Q600.6076,451.6819 600.0138,451.4162 Q599.4201,451.135 598.7951,451.135 Q597.4513,451.135 596.7638,452.2131 Q596.0763,453.2756 596.0763,455.3694 Q596.0763,457.4631 596.7638,458.5412 Q597.4513,459.6037 598.7951,459.6037 Q599.4201,459.6037 600.0138,459.3381 Q600.6076,459.0569 601.2326,458.4787 L601.2326,461.1975 Z " fill="#FFFFFF"/><text fill="#FFFFFF" font-family="sans-serif" font-size="14" lengthAdjust="spacing" textLength="76.3027" x="618.7638" y="460.4036">WorkOrder</text><line style="stroke:#E7E7E7;stroke-width:0.5;" x1="460.59" x2="820.7404" y1="471.5569" y2="471.5569"/><g data-visibility-modifier="PRIVATE_FIELD"><rect fill="none" height="6" style="stroke:#C82930;stroke-width:1;" width="6" x="467.59" y="482.2053"/></g><text fill="#FFFFFF" font-family="sans-serif" font-size="14" lengthAdjust="spacing" textLength="82.4619" x="479.59" y="488.552">orderId : int</text><g data-visibility-modifier="PRIVATE_FIELD"><rect fill="none" height="6" style="stroke:#C82930;stroke-width:1;" width="6" x="467.59" y="498.5022"/></g><text fill="#FFFFFF" font-family="sans-serif" font-size="14" lengthAdjust="spacing" textLength="133.2393" x="479.59" y="504.8489">description : String</text><g data-visibility-modifier="PRIVATE_FIELD"><rect fill="none" height="6" style="stroke:#C82930;stroke-width:1;" width="6" x="467.59" y="514.7991"/></g><text fill="#FFFFFF" font-family="sans-serif" font-size="14" lengthAdjust="spacing" textLength="102.0469" x="479.59" y="521.1457">facility : String</text><g data-visibility-modifier="PRIVATE_FIELD"><rect fill="none" height="6" style="stroke:#C82930;stroke-width:1;" width="6" x="467.59" y="531.0959"/></g><text fill="#FFFFFF" font-family="sans-serif" font-size="14" lengthAdjust="spacing" textLength="190.5107" x="479.59" y="537.4426">priority : WorkOrderPriority</text><g data-visibility-modifier="PRIVATE_FIELD"><rect fill="none" height="6" style="stroke:#C82930;stroke-width:1;" width="6" x="467.59" y="547.3928"/></g><text fill="#FFFFFF" font-family="sans-serif" font-size="14" lengthAdjust="spacing" textLength="177.5498" x="479.59" y="553.7395">status : WorkOrderStatus</text><g data-visibility-modifier="PRIVATE_FIELD"><rect fill="none" height="6" style="stroke:#C82930;stroke-width:1;" width="6" x="467.59" y="563.6897"/></g><text fill="#FFFFFF" font-family="sans-serif" font-size="14" lengthAdjust="spacing" textLength="227.0078" x="479.59" y="570.0364">assignedTechnician : Technician</text><line style="stroke:#E7E7E7;stroke-width:0.5;" x1="460.59" x2="820.7404" y1="577.3381" y2="577.3381"/><g data-visibility-modifier="PUBLIC_METHOD"><ellipse cx="470.59" cy="590.9866" fill="#84BE84" rx="3" ry="3" style="stroke:#038048;stroke-width:1;"/></g><text fill="#FFFFFF" font-family="sans-serif" font-size="14" lengthAdjust="spacing" textLength="118.8291" x="479.59" y="594.3332">getOrderId() : int</text><g data-visibility-modifier="PUBLIC_METHOD"><ellipse cx="470.59" cy="607.2834" fill="#84BE84" rx="3" ry="3" style="stroke:#038048;stroke-width:1;"/></g><text fill="#FFFFFF" font-family="sans-serif" font-size="14" lengthAdjust="spacing" textLength="213.0557" x="479.59" y="610.6301">getStatus() : WorkOrderStatus</text><g data-visibility-modifier="PUBLIC_METHOD"><ellipse cx="470.59" cy="623.5803" fill="#84BE84" rx="3" ry="3" style="stroke:#038048;stroke-width:1;"/></g><text fill="#FFFFFF" font-family="sans-serif" font-size="14" lengthAdjust="spacing" textLength="297.7256" x="479.59" y="626.927">setStatus(status : WorkOrderStatus) : void</text><g data-visibility-modifier="PUBLIC_METHOD"><ellipse cx="470.59" cy="639.8772" fill="#84BE84" rx="3" ry="3" style="stroke:#038048;stroke-width:1;"/></g><text fill="#FFFFFF" font-family="sans-serif" font-size="14" lengthAdjust="spacing" textLength="336.1504" x="479.59" y="643.2239">assignTechnician(technician : Technician) : void</text></g><!--class WorkOrderPriority--><g class="entity" data-qualified-name="WorkOrderPriority" data-source-line="48" id="ent0006"><rect fill="#313139" height="96.8906" rx="2.5" ry="2.5" style="stroke:#E7E7E7;stroke-width:0.5;" width="158.376" x="561.47" y="718.6769"/><ellipse cx="576.47" cy="734.6769" fill="#852D19" rx="11" ry="11" style="stroke:#E7E7E7;stroke-width:1;"/><path d="M580.5794,740.6769 L572.8606,740.6769 L572.8606,728.2863 L580.5794,728.2863 L580.5794,730.4425 L575.3138,730.4425 L575.3138,733.1144 L580.0794,733.1144 L580.0794,735.2706 L575.3138,735.2706 L575.3138,738.5206 L580.5794,738.5206 L580.5794,740.6769 Z " fill="#FFFFFF"/><text fill="#FFFFFF" font-family="sans-serif" font-size="14" lengthAdjust="spacing" textLength="126.376" x="590.47" y="739.5236">WorkOrderPriority</text><line style="stroke:#E7E7E7;stroke-width:0.5;" x1="562.47" x2="718.846" y1="750.6769" y2="750.6769"/><text fill="#FFFFFF" font-family="sans-serif" font-size="14" lengthAdjust="spacing" textLength="32.6621" x="567.47" y="767.672">LOW</text><text fill="#FFFFFF" font-family="sans-serif" font-size="14" lengthAdjust="spacing" textLength="58.1602" x="567.47" y="783.9689">MEDIUM</text><text fill="#FFFFFF" font-family="sans-serif" font-size="14" lengthAdjust="spacing" textLength="36.0322" x="567.47" y="800.2657">HIGH</text><line style="stroke:#E7E7E7;stroke-width:0.5;" x1="562.47" x2="718.846" y1="807.5675" y2="807.5675"/></g><!--class WorkOrderStatus--><g class="entity" data-qualified-name="WorkOrderStatus" data-source-line="54" id="ent0007"><rect fill="#313139" height="113.1875" rx="2.5" ry="2.5" style="stroke:#E7E7E7;stroke-width:0.5;" width="152.9141" x="755.2" y="710.5269"/><ellipse cx="770.2" cy="726.5269" fill="#852D19" rx="11" ry="11" style="stroke:#E7E7E7;stroke-width:1;"/><path d="M774.3094,732.5269 L766.5906,732.5269 L766.5906,720.1362 L774.3094,720.1362 L774.3094,722.2925 L769.0438,722.2925 L769.0438,724.9644 L773.8094,724.9644 L773.8094,727.1206 L769.0438,727.1206 L769.0438,730.3706 L774.3094,730.3706 L774.3094,732.5269 Z " fill="#FFFFFF"/><text fill="#FFFFFF" font-family="sans-serif" font-size="14" lengthAdjust="spacing" textLength="120.9141" x="784.2" y="731.3736">WorkOrderStatus</text><line style="stroke:#E7E7E7;stroke-width:0.5;" x1="756.2" x2="907.1141" y1="742.5269" y2="742.5269"/><text fill="#FFFFFF" font-family="sans-serif" font-size="14" lengthAdjust="spacing" textLength="38.7803" x="761.2" y="759.522">OPEN</text><text fill="#FFFFFF" font-family="sans-serif" font-size="14" lengthAdjust="spacing" textLength="97.9863" x="761.2" y="775.8189">IN_PROGRESS</text><text fill="#FFFFFF" font-family="sans-serif" font-size="14" lengthAdjust="spacing" textLength="86.1396" x="761.2" y="792.1157">COMPLETED</text><text fill="#FFFFFF" font-family="sans-serif" font-size="14" lengthAdjust="spacing" textLength="83.6719" x="761.2" y="808.4126">CANCELLED</text><line style="stroke:#E7E7E7;stroke-width:0.5;" x1="756.2" x2="907.1141" y1="815.7144" y2="815.7144"/></g><!--class WorkOrderOperations--><g class="entity" data-qualified-name="WorkOrderOperations" data-source-line="64" id="ent0008"><rect fill="#313139" height="162.0781" rx="2.5" ry="2.5" style="stroke:#E7E7E7;stroke-width:0.5;" width="447.3945" x="856.96" y="464.0069"/><ellipse cx="999.773" cy="480.0069" fill="#352866" rx="11" ry="11" style="stroke:#E7E7E7;stroke-width:1;"/><path d="M995.6949,475.7725 L995.6949,473.6163 L1003.0855,473.6163 L1003.0855,475.7725 L1000.6167,475.7725 L1000.6167,483.8506 L1003.0855,483.8506 L1003.0855,486.0069 L995.6949,486.0069 L995.6949,483.8506 L998.1636,483.8506 L998.1636,475.7725 L995.6949,475.7725 Z " fill="#FFFFFF"/><text fill="#FFFFFF" font-family="sans-serif" font-size="14" font-style="italic" lengthAdjust="spacing" textLength="153.2686" x="1020.273" y="484.8536">WorkOrderOperations</text><line style="stroke:#E7E7E7;stroke-width:0.5;" x1="857.96" x2="1303.3545" y1="496.0069" y2="496.0069"/><line style="stroke:#E7E7E7;stroke-width:0.5;" x1="857.96" x2="1303.3545" y1="504.0069" y2="504.0069"/><g data-visibility-modifier="PUBLIC_METHOD"><ellipse cx="867.96" cy="517.6553" fill="#84BE84" rx="3" ry="3" style="stroke:#038048;stroke-width:1;"/></g><text fill="#FFFFFF" font-family="sans-serif" font-size="14" lengthAdjust="spacing" textLength="302.7158" x="876.96" y="521.002">createWorkOrder(order : WorkOrder) : void</text><g data-visibility-modifier="PUBLIC_METHOD"><ellipse cx="867.96" cy="533.9522" fill="#84BE84" rx="3" ry="3" style="stroke:#038048;stroke-width:1;"/></g><text fill="#FFFFFF" font-family="sans-serif" font-size="14" lengthAdjust="spacing" textLength="313.5029" x="876.96" y="537.2989">getWorkOrderById(orderId : int) : WorkOrder</text><g data-visibility-modifier="PUBLIC_METHOD"><ellipse cx="867.96" cy="550.2491" fill="#84BE84" rx="3" ry="3" style="stroke:#038048;stroke-width:1;"/></g><text fill="#FFFFFF" font-family="sans-serif" font-size="14" lengthAdjust="spacing" textLength="421.3945" x="876.96" y="553.5957">filterByStatus(status : WorkOrderStatus) : List&lt;WorkOrder&gt;</text><g data-visibility-modifier="PUBLIC_METHOD"><ellipse cx="867.96" cy="566.5459" fill="#84BE84" rx="3" ry="3" style="stroke:#038048;stroke-width:1;"/></g><text fill="#FFFFFF" font-family="sans-serif" font-size="14" lengthAdjust="spacing" textLength="417.0195" x="876.96" y="569.8926">updateStatus(orderId : int, status : WorkOrderStatus) : void</text><g data-visibility-modifier="PUBLIC_METHOD"><ellipse cx="867.96" cy="582.8428" fill="#84BE84" rx="3" ry="3" style="stroke:#038048;stroke-width:1;"/></g><text fill="#FFFFFF" font-family="sans-serif" font-size="14" lengthAdjust="spacing" textLength="257.0381" x="876.96" y="586.1895">deleteWorkOrder(orderId : int) : void</text><g data-visibility-modifier="PUBLIC_METHOD"><ellipse cx="867.96" cy="599.1397" fill="#84BE84" rx="3" ry="3" style="stroke:#038048;stroke-width:1;"/></g><text fill="#FFFFFF" font-family="sans-serif" font-size="14" lengthAdjust="spacing" textLength="128.502" x="876.96" y="602.4864">saveToFile() : void</text><g data-visibility-modifier="PUBLIC_METHOD"><ellipse cx="867.96" cy="615.4366" fill="#84BE84" rx="3" ry="3" style="stroke:#038048;stroke-width:1;"/></g><text fill="#FFFFFF" font-family="sans-serif" font-size="14" lengthAdjust="spacing" textLength="144.5459" x="876.96" y="618.7832">loadFromFile() : void</text></g><!--class WorkOrderManager--><g class="entity" data-qualified-name="WorkOrderManager" data-source-line="77" id="ent0009"><rect fill="#313139" height="178.375" rx="2.5" ry="2.5" style="stroke:#E7E7E7;stroke-width:0.5;" width="447.3945" x="636.96" y="201.1869"/><ellipse cx="787.5728" cy="217.1869" fill="#2E5233" rx="11" ry="11" style="stroke:#E7E7E7;stroke-width:1;"/><path d="M790.5415,222.8275 Q789.9634,223.1244 789.3228,223.265 Q788.6822,223.4213 787.979,223.4213 Q785.479,223.4213 784.1509,221.7806 Q782.8384,220.1244 782.8384,216.9994 Q782.8384,213.8744 784.1509,212.2181 Q785.479,210.5619 787.979,210.5619 Q788.6822,210.5619 789.3228,210.7181 Q789.979,210.8744 790.5415,211.1713 L790.5415,213.89 Q789.9165,213.3119 789.3228,213.0463 Q788.729,212.765 788.104,212.765 Q786.7603,212.765 786.0728,213.8431 Q785.3853,214.9056 785.3853,216.9994 Q785.3853,219.0931 786.0728,220.1713 Q786.7603,221.2338 788.104,221.2338 Q788.729,221.2338 789.3228,220.9681 Q789.9165,220.6869 790.5415,220.1088 L790.5415,222.8275 Z " fill="#FFFFFF"/><text fill="#FFFFFF" font-family="sans-serif" font-size="14" lengthAdjust="spacing" textLength="137.6689" x="808.0728" y="222.0336">WorkOrderManager</text><line style="stroke:#E7E7E7;stroke-width:0.5;" x1="637.96" x2="1083.3545" y1="233.1869" y2="233.1869"/><g data-visibility-modifier="PRIVATE_FIELD"><rect fill="none" height="6" style="stroke:#C82930;stroke-width:1;" width="6" x="644.96" y="243.8353"/></g><text fill="#FFFFFF" font-family="sans-serif" font-size="14" lengthAdjust="spacing" textLength="219.0576" x="656.96" y="250.182">workOrders : List&lt;WorkOrder&gt;</text><line style="stroke:#E7E7E7;stroke-width:0.5;" x1="637.96" x2="1083.3545" y1="257.4838" y2="257.4838"/><g data-visibility-modifier="PUBLIC_METHOD"><ellipse cx="647.96" cy="271.1322" fill="#84BE84" rx="3" ry="3" style="stroke:#038048;stroke-width:1;"/></g><text fill="#FFFFFF" font-family="sans-serif" font-size="14" lengthAdjust="spacing" textLength="302.7158" x="656.96" y="274.4789">createWorkOrder(order : WorkOrder) : void</text><g data-visibility-modifier="PUBLIC_METHOD"><ellipse cx="647.96" cy="287.4291" fill="#84BE84" rx="3" ry="3" style="stroke:#038048;stroke-width:1;"/></g><text fill="#FFFFFF" font-family="sans-serif" font-size="14" lengthAdjust="spacing" textLength="313.5029" x="656.96" y="290.7757">getWorkOrderById(orderId : int) : WorkOrder</text><g data-visibility-modifier="PUBLIC_METHOD"><ellipse cx="647.96" cy="303.7259" fill="#84BE84" rx="3" ry="3" style="stroke:#038048;stroke-width:1;"/></g><text fill="#FFFFFF" font-family="sans-serif" font-size="14" lengthAdjust="spacing" textLength="421.3945" x="656.96" y="307.0726">filterByStatus(status : WorkOrderStatus) : List&lt;WorkOrder&gt;</text><g data-visibility-modifier="PUBLIC_METHOD"><ellipse cx="647.96" cy="320.0228" fill="#84BE84" rx="3" ry="3" style="stroke:#038048;stroke-width:1;"/></g><text fill="#FFFFFF" font-family="sans-serif" font-size="14" lengthAdjust="spacing" textLength="417.0195" x="656.96" y="323.3695">updateStatus(orderId : int, status : WorkOrderStatus) : void</text><g data-visibility-modifier="PUBLIC_METHOD"><ellipse cx="647.96" cy="336.3197" fill="#84BE84" rx="3" ry="3" style="stroke:#038048;stroke-width:1;"/></g><text fill="#FFFFFF" font-family="sans-serif" font-size="14" lengthAdjust="spacing" textLength="257.0381" x="656.96" y="339.6664">deleteWorkOrder(orderId : int) : void</text><g data-visibility-modifier="PUBLIC_METHOD"><ellipse cx="647.96" cy="352.6166" fill="#84BE84" rx="3" ry="3" style="stroke:#038048;stroke-width:1;"/></g><text fill="#FFFFFF" font-family="sans-serif" font-size="14" lengthAdjust="spacing" textLength="128.502" x="656.96" y="355.9632">saveToFile() : void</text><g data-visibility-modifier="PUBLIC_METHOD"><ellipse cx="647.96" cy="368.9134" fill="#84BE84" rx="3" ry="3" style="stroke:#038048;stroke-width:1;"/></g><text fill="#FFFFFF" font-family="sans-serif" font-size="14" lengthAdjust="spacing" textLength="144.5459" x="656.96" y="372.2601">loadFromFile() : void</text></g><!--class Main--><g class="entity" data-qualified-name="Main" data-source-line="98" id="ent0015"><rect fill="#313139" height="96.8906" rx="2.5" ry="2.5" style="stroke:#E7E7E7;stroke-width:0.5;" width="254.8057" x="733.26" y="44.2969"/><ellipse cx="839.7024" cy="60.2969" fill="#2E5233" rx="11" ry="11" style="stroke:#E7E7E7;stroke-width:1;"/><path d="M842.6711,65.9375 Q842.093,66.2344 841.4524,66.375 Q840.8118,66.5313 840.1086,66.5313 Q837.6086,66.5313 836.2805,64.8906 Q834.968,63.2344 834.968,60.1094 Q834.968,56.9844 836.2805,55.3281 Q837.6086,53.6719 840.1086,53.6719 Q840.8118,53.6719 841.4524,53.8281 Q842.1086,53.9844 842.6711,54.2813 L842.6711,57 Q842.0461,56.4219 841.4524,56.1563 Q840.8586,55.875 840.2336,55.875 Q838.8899,55.875 838.2024,56.9531 Q837.5149,58.0156 837.5149,60.1094 Q837.5149,62.2031 838.2024,63.2813 Q838.8899,64.3438 840.2336,64.3438 Q840.8586,64.3438 841.4524,64.0781 Q842.0461,63.7969 842.6711,63.2188 L842.6711,65.9375 Z " fill="#FFFFFF"/><text fill="#FFFFFF" font-family="sans-serif" font-size="14" lengthAdjust="spacing" textLength="33.4209" x="860.2024" y="65.1436">Main</text><line style="stroke:#E7E7E7;stroke-width:0.5;" x1="734.26" x2="987.0657" y1="76.2969" y2="76.2969"/><line style="stroke:#E7E7E7;stroke-width:0.5;" x1="734.26" x2="987.0657" y1="84.2969" y2="84.2969"/><g data-visibility-modifier="PUBLIC_METHOD"><ellipse cx="744.26" cy="97.9453" fill="#84BE84" rx="3" ry="3" style="stroke:#038048;stroke-width:1;"/></g><text fill="#FFFFFF" font-family="sans-serif" font-size="14" lengthAdjust="spacing" textLength="142.3174" x="753.26" y="101.292">displayMenu() : void</text><g data-visibility-modifier="PUBLIC_METHOD"><ellipse cx="744.26" cy="114.2422" fill="#84BE84" rx="3" ry="3" style="stroke:#038048;stroke-width:1;"/></g><text fill="#FFFFFF" font-family="sans-serif" font-size="14" lengthAdjust="spacing" textLength="198.1328" x="753.26" y="117.5889">handleAdminActions() : void</text><g data-visibility-modifier="PUBLIC_METHOD"><ellipse cx="744.26" cy="130.5391" fill="#84BE84" rx="3" ry="3" style="stroke:#038048;stroke-width:1;"/></g><text fill="#FFFFFF" font-family="sans-serif" font-size="14" lengthAdjust="spacing" textLength="228.8057" x="753.26" y="133.8857">handleTechnicianActions() : void</text></g><!--reverse link User to Technician--><g class="link" data-entity-1="ent0002" data-entity-2="ent0003" data-link-type="extension" data-source-line="26" id="lnk4"><path codeLine="26" d="M266.66,636.4069 C266.66,669.2369 266.66,689.1469 266.66,718.3369" fill="none" id="User-backto-Technician" style="stroke:#E7E7E7;stroke-width:1;"/><polygon fill="none" points="266.66,618.4069,260.66,636.4069,272.66,636.4069,266.66,618.4069" style="stroke:#E7E7E7;stroke-width:1;"/></g><!--link WorkOrderManager to WorkOrderOperations--><g class="link" data-entity-1="ent0009" data-entity-2="ent0008" data-link-type="extension" data-source-line="89" id="lnk10"><path codeLine="89" d="M937.61,379.7469 C961.4,407.0669 975.6379,423.4335 998.9279,450.1735" fill="none" id="WorkOrderManager-to-WorkOrderOperations" style="stroke:#E7E7E7;stroke-width:1;stroke-dasharray:7,7;"/><polygon fill="none" points="1010.75,463.7469,1003.4523,446.2328,994.4034,454.1142,1010.75,463.7469" style="stroke:#E7E7E7;stroke-width:1;"/></g><!--reverse link WorkOrderManager to WorkOrder--><g class="link" data-entity-1="ent0009" data-entity-2="ent0005" data-link-type="composition" data-source-line="90" id="lnk11"><path codeLine="90" d="M775.839,388.7962 C759.109,408.0062 749.14,419.4569 731.92,439.2369" fill="none" id="WorkOrderManager-backto-WorkOrder" style="stroke:#E7E7E7;stroke-width:1;"/><polygon fill="#E7E7E7" points="783.72,379.7469,776.7631,381.6445,775.839,388.7962,782.7959,386.8985,783.72,379.7469" style="stroke:#E7E7E7;stroke-width:1;"/></g><!--link WorkOrder to Technician--><g class="link" data-entity-1="ent0005" data-entity-2="ent0003" data-link-type="dependency" data-source-line="91" id="lnk12"><path codeLine="91" d="M462.42,650.9269 C422.35,674.5069 386.9113,695.3642 353.1413,715.2342" fill="none" id="WorkOrder-to-Technician" style="stroke:#E7E7E7;stroke-width:1;"/><polygon fill="#E7E7E7" points="347.97,718.2769,357.7554,717.1603,352.2794,715.7413,353.6984,710.2653,347.97,718.2769" style="stroke:#E7E7E7;stroke-width:1;"/></g><!--link WorkOrder to WorkOrderPriority--><g class="link" data-entity-1="ent0005" data-entity-2="ent0006" data-link-type="dependency" data-source-line="92" id="lnk13"><path codeLine="92" d="M640.66,650.9269 C640.66,674.5069 640.66,692.4069 640.66,712.2769" fill="none" id="WorkOrder-to-WorkOrderPriority" style="stroke:#E7E7E7;stroke-width:1;"/><polygon fill="#E7E7E7" points="640.66,718.2769,644.66,709.2769,640.66,713.2769,636.66,709.2769,640.66,718.2769" style="stroke:#E7E7E7;stroke-width:1;"/></g><!--link WorkOrder to WorkOrderStatus--><g class="link" data-entity-1="ent0005" data-entity-2="ent0007" data-link-type="dependency" data-source-line="93" id="lnk14"><path codeLine="93" d="M731.69,650.9269 C749.46,671.4069 763.5069,687.5958 779.2269,705.7058" fill="none" id="WorkOrder-to-WorkOrderStatus" style="stroke:#E7E7E7;stroke-width:1;"/><polygon fill="#E7E7E7" points="783.16,710.2369,780.2811,700.8182,779.8824,706.461,774.2396,706.0623,783.16,710.2369" style="stroke:#E7E7E7;stroke-width:1;"/></g><!--link Main to WorkOrderManager--><g class="link" data-entity-1="ent0015" data-entity-2="ent0009" data-link-type="dependency" data-source-line="104" id="lnk16"><path codeLine="104" d="M860.66,141.5969 C860.66,159.4669 860.66,174.3869 860.66,194.7569" fill="none" id="Main-to-WorkOrderManager" style="stroke:#E7E7E7;stroke-width:1;"/><polygon fill="#E7E7E7" points="860.66,200.7569,864.66,191.7569,860.66,195.7569,856.66,191.7569,860.66,200.7569" style="stroke:#E7E7E7;stroke-width:1;"/></g><?plantuml-src xLRVRzem47xdh_3RmXZTUzKXKHhQI84WVgYFbPTSmLfYHxQXOkl-zrti4E8c3TNsEYI8yztvSlTzlWkQwHI8lyueung_P4YcD6OfqqSoAp3WbCU0Qqwta07NP7LK6h9UxnFvrlv1oorLG3OA99caLAaEN_fTQKbZJUB2qUxvrIEOnnwNGKAkoKfBnhS6upG35v4YhI483SWMzCRizVfrNsEOOu0MU8bHwl3lxlBM4EyuYndbn0lu3YJJ1KlzZasslDf6MwJA0UzIzfDg9lYRGWuCNiPAiIs79989I6LoF0YM6Fi-JwY6Ho5_6EjAKxrNdYZMXZYKxmjH1iMxDtvL9ApLi7xpEXpM4knce0f6PYA1z6BXPtzRjvEaGH9GiMIvIqDXU3wTHmVD9HFIebNiHObPPj-fsnXfoMfDZskdzl9SH3PDGxjDrC0bq_tMw0EYAe-Bv1VkDfdpqptTdbLTiIvjVBxFkbeEqDuapGWJHe_uE_FlWiqC5m_1_KFnD7U7BS7uHmj_ZfTW_hHOHlTBVxN2kqaqMuJ-shyhrkFvn0z3N5z8Ei1H8r5g8Dwu70bu4hewYbKxgioY7AHf99lTWCGIwXrYUwCkXoC4AbiPReyektDA7RMD_pDBTU7v0R53flHDXOzgxVkNNLi4mCQ3HdNrT2jFHG-m5bDMJhaAJmLDfb9ahkM2LFPT88aNYYsBIKYFoEF79y1fknq4BoTOjR3qNyD_qR31-DNLwwYjMPgUd_5LSERfFBo7mr5zJBg6vXn-nrwEoiv3jWd8Lp8HNECBFiKSBXsluizAsVG9KtbAZpESMYvJEygJ5CP9nlZOZ1VLPZ_Nrt12Kirpd6fAplu0?></g></svg>